<svg xmlns="http://www.w3.org/2000/svg" width="512" height="512" viewBox="0 0 512 512" style="" data-bbox="9.545 189.757 486.093 106.649">
  <path text="BeeHub" fill="#000000" space="preserve" text-anchor="middle" offset="0.5" font-scale="contain" font-size="68" font-family="Cinzel" transform="matrix(1.0105907917022705, 0, 0, 1, 254.08413696289062, 237.3574981689453)" font-style="normal" font-weight="700" data-fl-textpath="" d="M-123.458-47.6L-123.458-47.6L-111.688-47.6Q-106.728-47.6 -102.818-46.41Q-98.908-45.22 -96.658-42.67Q-94.418-40.12 -94.418-35.97L-94.418-35.97Q-94.418-32.84 -95.608-30.7Q-96.798-28.56 -98.698-27.37Q-100.608-26.18 -102.718-25.91L-102.718-25.91Q-99.318-25.64 -96.558-24Q-93.808-22.37 -92.238-19.65Q-90.678-16.93 -90.678-13.26L-90.678-13.26Q-90.678-8.91 -93.058-5.95Q-95.438-2.99 -99.758-1.5Q-104.078 0 -109.788 0L-109.788 0L-116.518 0Q-116.518 0 -116.488-0.78Q-116.448-1.56 -116.448-2.31Q-116.448-3.06 -116.448-3.06L-116.448-3.06L-112.778-3.06Q-109.718-3.06 -107.368-4.22Q-105.028-5.37 -103.698-7.82Q-102.378-10.27 -102.378-14.08L-102.378-14.08Q-102.378-17.07 -103.288-19.18Q-104.208-21.28 -105.738-22.61Q-107.268-23.94 -109.308-24.55Q-111.348-25.16 -113.598-25.16L-113.598-25.16L-113.598-25.77Q-112.028-25.77 -110.538-26.28Q-109.038-26.79 -107.848-27.88Q-106.658-28.97 -105.978-30.77Q-105.298-32.57 -105.298-35.09L-105.298-35.09Q-105.298-38.56 -106.388-40.66Q-107.478-42.77 -109.408-43.72Q-111.348-44.68 -113.998-44.68L-113.998-44.68L-122.778-44.68Q-122.778-44.74 -122.948-45.46Q-123.118-46.17 -123.288-46.89Q-123.458-47.6 -123.458-47.6ZM-126.108-47.6L-115.908-47.6L-115.908 0L-126.108 0L-126.108-47.6ZM-126.108-4.96L-125.898-4.96L-125.898 0L-131.338 0L-131.338-0.68Q-131.208-0.68 -130.868-0.68Q-130.528-0.68 -130.458-0.68L-130.458-0.68Q-128.688-0.68 -127.428-1.94Q-126.178-3.2 -126.108-4.96L-126.108-4.96ZM-125.898-47.6L-125.898-42.64L-126.108-42.64Q-126.178-44.4 -127.428-45.66Q-128.688-46.92 -130.458-46.92L-130.458-46.92Q-130.528-46.92 -130.868-46.92Q-131.208-46.92 -131.338-46.92L-131.338-46.92L-131.338-47.6L-125.898-47.6ZM-81.768-40.8L-71.978-40.8L-71.978 0L-81.768 0L-81.768-40.8ZM-72.118-2.72L-56.068-2.72L-54.498 0L-72.118 0L-72.118-2.72ZM-72.118-21.56L-58.378-21.56L-58.378-18.84L-72.118-18.84L-72.118-21.56ZM-72.118-40.8L-55.318-40.8L-55.318-38.08L-72.118-38.08L-72.118-40.8ZM-52.328-12.51L-51.718-12.51L-54.298 0L-66.058 0L-63.958-2.72Q-61.028-2.72 -58.748-3.91Q-56.478-5.1 -54.838-7.31Q-53.208-9.52 -52.328-12.51L-52.328-12.51ZM-64.228-18.97L-58.378-18.97L-58.378-12.99L-59.058-12.99L-59.058-13.53Q-59.058-15.78 -60.448-17.31Q-61.848-18.84 -64.228-18.84L-64.228-18.84L-64.228-18.97ZM-59.058-27.4L-58.378-27.4L-58.378-21.42L-64.228-21.42L-64.228-21.56Q-61.848-21.62 -60.448-23.15Q-59.058-24.68 -59.058-26.93L-59.058-26.93L-59.058-27.4ZM-62.188-38.22L-55.318-38.22L-55.318-31.01L-55.998-31.01L-55.998-31.62Q-55.998-34.61 -57.598-36.31Q-59.198-38.01 -62.188-38.08L-62.188-38.08L-62.188-38.22ZM-55.318-41.82L-55.318-41.82L-55.318-40.19L-62.458-40.8Q-60.488-40.8 -58.308-41.17Q-56.138-41.55 -55.318-41.82ZM-81.768-4.28L-81.568-4.28L-81.298 0L-86.328 0L-86.328-0.68Q-86.328-0.68 -85.918-0.68Q-85.508-0.68 -85.438-0.68L-85.438-0.68Q-83.948-0.68 -82.858-1.73Q-81.768-2.79 -81.768-4.28L-81.768-4.28ZM-81.298-40.8L-81.568-36.52L-81.768-36.52Q-81.768-38.08 -82.858-39.1Q-83.948-40.12 -85.438-40.12L-85.438-40.12Q-85.508-40.12 -85.918-40.12Q-86.328-40.12 -86.328-40.12L-86.328-40.12L-86.328-40.8L-81.298-40.8ZM-43.688-40.8L-33.898-40.8L-33.898 0L-43.688 0L-43.688-40.8ZM-34.038-2.72L-17.988-2.72L-16.418 0L-34.038 0L-34.038-2.72ZM-34.038-21.56L-20.298-21.56L-20.298-18.84L-34.038-18.84L-34.038-21.56ZM-34.038-40.8L-17.238-40.8L-17.238-38.08L-34.038-38.08L-34.038-40.8ZM-14.248-12.51L-13.638-12.51L-16.218 0L-27.978 0L-25.878-2.72Q-22.948-2.72 -20.668-3.91Q-18.398-5.1 -16.758-7.31Q-15.128-9.52 -14.248-12.51L-14.248-12.51ZM-26.148-18.97L-20.298-18.97L-20.298-12.99L-20.978-12.99L-20.978-13.53Q-20.978-15.78 -22.368-17.31Q-23.768-18.84 -26.148-18.84L-26.148-18.84L-26.148-18.97ZM-20.978-27.4L-20.298-27.4L-20.298-21.42L-26.148-21.42L-26.148-21.56Q-23.768-21.62 -22.368-23.15Q-20.978-24.68 -20.978-26.93L-20.978-26.93L-20.978-27.4ZM-24.108-38.22L-17.238-38.22L-17.238-31.01L-17.918-31.01L-17.918-31.62Q-17.918-34.61 -19.518-36.31Q-21.118-38.01 -24.108-38.08L-24.108-38.08L-24.108-38.22ZM-17.238-41.82L-17.238-41.82L-17.238-40.19L-24.378-40.8Q-22.408-40.8 -20.228-41.17Q-18.058-41.55 -17.238-41.82ZM-43.688-4.28L-43.488-4.28L-43.218 0L-48.248 0L-48.248-0.68Q-48.248-0.68 -47.838-0.68Q-47.428-0.68 -47.358-0.68L-47.358-0.68Q-45.868-0.68 -44.778-1.73Q-43.688-2.79 -43.688-4.28L-43.688-4.28ZM-43.218-40.8L-43.488-36.52L-43.688-36.52Q-43.688-38.08 -44.778-39.1Q-45.868-40.12 -47.358-40.12L-47.358-40.12Q-47.428-40.12 -47.838-40.12Q-48.248-40.12 -48.248-40.12L-48.248-40.12L-48.248-40.8L-43.218-40.8ZM 28.114-47.6L 38.314-47.6L 38.314 0L 28.114 0L 28.114-47.6ZM-4.116-47.6L 6.084-47.6L 6.084 0L-4.116 0L-4.116-47.6ZM 5.404-25.09L 28.734-25.09L 28.734-22.24L 5.404-22.24L 5.404-25.09ZM-4.116-4.96L-3.906-4.96L-3.906 0L-9.346 0L-9.346-0.68Q-9.346-0.68 -8.906-0.68Q-8.466-0.68 -8.466-0.68L-8.466-0.68Q-6.696-0.68 -5.436-1.94Q-4.186-3.2 -4.116-4.96L-4.116-4.96ZM-3.906-47.6L-3.906-42.64L-4.116-42.64Q-4.186-44.4 -5.436-45.66Q-6.696-46.92 -8.466-46.92L-8.466-46.92Q-8.466-46.92 -8.906-46.92Q-9.346-46.92 -9.346-46.92L-9.346-46.92L-9.346-47.6L-3.906-47.6ZM 5.884 0L 5.884-4.96L 6.084-4.96Q 6.154-3.2  7.414-1.94Q 8.674-0.68  10.434-0.68L 10.434-0.68Q 10.434-0.68  10.844-0.68Q 11.254-0.68  11.324-0.68L 11.324-0.68L 11.324 0L 5.884 0ZM 6.084-42.64L 5.884-42.64L 5.884-47.6L 11.324-47.6L 11.324-46.92Q 11.254-46.92  10.844-46.92Q 10.434-46.92  10.434-46.92L 10.434-46.92Q 8.674-46.92  7.414-45.66Q 6.154-44.4  6.084-42.64L 6.084-42.64ZM 28.114-4.96L 28.324-4.96L 28.324 0L 22.884 0L 22.884-0.68Q 22.954-0.68  23.354-0.68Q 23.764-0.68  23.764-0.68L 23.764-0.68Q 25.534-0.68  26.824-1.94Q 28.114-3.2  28.114-4.96L 28.114-4.96ZM 28.324-47.6L 28.324-42.64L 28.114-42.64Q 28.114-44.4  26.824-45.66Q 25.534-46.92  23.764-46.92L 23.764-46.92Q 23.764-46.92  23.354-46.92Q 22.954-46.92  22.884-46.92L 22.884-46.92L 22.884-47.6L 28.324-47.6ZM 38.114 0L 38.114-4.96L 38.314-4.96Q 38.384-3.2  39.644-1.94Q 40.904-0.68  42.674-0.68L 42.674-0.68Q 42.674-0.68  43.114-0.68Q 43.554-0.68  43.554-0.68L 43.554-0.68L 43.554 0L 38.114 0ZM 38.314-42.64L 38.114-42.64L 38.114-47.6L 43.554-47.6L 43.554-46.92Q 43.554-46.92  43.114-46.92Q 42.674-46.92  42.674-46.92L 42.674-46.92Q 40.904-46.92  39.644-45.66Q 38.384-44.4  38.314-42.64L 38.314-42.64ZM 51.106-40.8L 60.896-40.8L 60.896-15.16Q 60.896-8.91  63.786-5.37Q 66.676-1.84  71.846-1.84L 71.846-1.84Q 77.216-1.84  80.176-5.17Q 83.126-8.5  83.196-14.42L 83.196-14.42L 83.196-40.8L 87.686-40.8L 87.686-14.82Q 87.686-7.55  83.236-3.33Q 78.776 0.88  70.616 0.88L 70.616 0.88Q 60.826 0.88  55.966-3.3Q 51.106-7.48  51.106-14.76L 51.106-14.76L 51.106-40.8ZM 47.026-40.8L 51.236-40.8L 51.236-37.26L 51.106-37.26Q 51.036-38.56  50.146-39.37Q 49.266-40.19  47.976-40.19L 47.976-40.19Q 47.976-40.19  47.496-40.19Q 47.026-40.19  47.026-40.19L 47.026-40.19L 47.026-40.8ZM 60.756-40.8L 64.906-40.8L 64.906-40.19Q 64.906-40.19  64.426-40.19Q 63.956-40.19  63.956-40.19L 63.956-40.19Q 62.666-40.19  61.776-39.37Q 60.896-38.56  60.896-37.26L 60.896-37.26L 60.756-37.26L 60.756-40.8ZM 79.186-40.8L 83.336-40.8L 83.336-37.26L 83.196-37.26Q 83.126-38.56  82.246-39.37Q 81.366-40.19  80.136-40.19L 80.136-40.19Q 80.136-40.19  79.666-40.19Q 79.186-40.19  79.186-40.19L 79.186-40.19L 79.186-40.8ZM 87.546-40.8L 91.696-40.8L 91.696-40.19Q 91.696-40.19  91.256-40.19Q 90.816-40.19  90.816-40.19L 90.816-40.19Q 89.526-40.19  88.606-39.37Q 87.686-38.56  87.686-37.26L 87.686-37.26L 87.546-37.26L 87.546-40.8ZM 102.576-40.8L 102.576-40.8L 113.866-40.8Q 116.516-40.8  119.236-40.39Q 121.956-39.98  124.206-38.9Q 126.446-37.81  127.806-35.84Q 129.166-33.86  129.166-30.67L 129.166-30.67Q 129.166-28.08  128.076-26.25Q 126.986-24.41  125.286-23.39Q 123.586-22.37  121.686-22.24L 121.686-22.24Q 124.676-22.03  127.056-20.67Q 129.436-19.31  130.896-17Q 132.366-14.69  132.366-11.63L 132.366-11.63Q 132.366-8.43  131.006-6.22Q 129.646-4.01  127.266-2.62Q 124.886-1.22  121.786-0.61Q 118.696 0  115.296 0L 115.296 0L 109.176 0Q 109.176 0  109.176-0.68Q 109.176-1.36  109.176-2.04Q 109.176-2.72  109.176-2.72L 109.176-2.72L 112.436-2.72Q 114.886-2.72  116.896-3.64Q 118.896-4.56  120.126-6.66Q 121.346-8.77  121.346-12.24L 121.346-12.24Q 121.346-14.62  120.636-16.42Q 119.916-18.22  118.626-19.35Q 117.336-20.47  115.566-21.01Q 113.796-21.56  111.686-21.56L 111.686-21.56L 111.686-22.17Q 113.186-22.17  114.546-22.61Q 115.906-23.05  116.896-23.97Q 117.876-24.89  118.456-26.38Q 119.036-27.88  119.036-29.99L 119.036-29.99Q 119.036-34.54  116.926-36.35Q 114.816-38.15  111.626-38.15L 111.626-38.15L 103.186-38.15Q 103.186-38.22  103.016-38.86Q 102.846-39.51  102.716-40.15Q 102.576-40.8  102.576-40.8ZM 100.066-40.8L 109.646-40.8L 109.646 0L 100.066 0L 100.066-40.8ZM 100.066-4.28L 100.266-4.28L 100.266 0L 95.576 0L 95.576-0.68Q 95.646-0.68  95.946-0.68Q 96.256-0.68  96.326-0.68L 96.326-0.68Q 97.956-0.68  99.006-1.73Q 100.066-2.79  100.066-4.28L 100.066-4.28ZM 100.266-40.8L 100.266-36.52L 100.066-36.52Q 100.066-38.15  99.006-39.13Q 97.956-40.12  96.326-40.12L 96.326-40.12Q 96.256-40.12  95.946-40.12Q 95.646-40.12  95.576-40.12L 95.576-40.12L 95.576-40.8L 100.266-40.8Z" />
  <path text="Virtual Assistants Co." fill="#000000" space="preserve" text-anchor="middle" offset="0.5" font-scale="contain" font-size="30" font-family="Cinzel" transform="matrix(1.0320199728012085, 0, 0, 1, 309.5181884765625, 266.5)" font-style="normal" font-weight="700" data-fl-textpath="" d="M-168.615-5.19L-170.445 0.6L-180.375-20.82L-175.005-20.82L-168.615-5.19ZM-170.175 0.6L-170.445 0.6L-170.535-3.06L-162.915-20.91L-160.755-20.91L-168.705-3.33Q-168.765-3.15 -168.995-2.65Q-169.215-2.16 -169.485-1.53Q-169.755-0.9 -169.945-0.32Q-170.145 0.27 -170.175 0.6L-170.175 0.6ZM-161.685-18.81L-163.815-18.81Q-163.425-19.71 -163.905-20.2Q-164.385-20.7 -164.955-20.7L-164.955-20.7L-165.225-20.7L-165.225-21L-158.805-21L-158.805-20.7Q-158.805-20.7 -158.945-20.7Q-159.075-20.7 -159.075-20.7L-159.075-20.7Q-159.735-20.7 -160.465-20.27Q-161.205-19.83 -161.685-18.81L-161.685-18.81ZM-174.165-18.81L-174.165-18.81L-179.445-18.81Q-179.925-19.83 -180.665-20.27Q-181.395-20.7-182.085-20.7L-182.085-20.7Q-182.085-20.7-182.205-20.7Q-182.325-20.7-182.325-20.7L-182.325-20.7L-182.325-21L-172.785-21L-172.785-20.7L-173.055-20.7Q-173.625-20.7 -174.065-20.2Q-174.495-19.71 -174.165-18.81ZM-156.885-18L-152.565-18L-152.565 0L-156.885 0L-156.885-18ZM-156.885-1.89L-156.795-1.89L-156.795 0L-158.985 0L-158.985-0.3Q-158.985-0.3 -158.805-0.3Q-158.625-0.3 -158.595-0.3L-158.595-0.3Q-157.905-0.3 -157.395-0.77Q-156.885-1.23 -156.885-1.89L-156.885-1.89ZM-152.625 0L-152.625-1.89L-152.565-1.89Q-152.535-1.23 -152.045-0.77Q-151.545-0.3 -150.825-0.3L-150.825-0.3Q-150.825-0.3 -150.665-0.3Q-150.495-0.3 -150.465-0.3L-150.465-0.3L-150.465 0L-152.625 0ZM-152.565-16.11L-152.625-16.11L-152.625-18L-150.465-18L-150.495-17.7Q-150.495-17.7 -150.645-17.7Q-150.795-17.7 -150.825-17.7L-150.825-17.7Q-151.545-17.7 -152.045-17.25Q-152.535-16.8 -152.565-16.11L-152.565-16.11ZM-156.795-18L-156.795-16.11L-156.885-16.11Q-156.885-16.8 -157.395-17.25Q-157.905-17.7 -158.625-17.7L-158.625-17.7Q-158.625-17.7 -158.805-17.7Q-158.985-17.7 -158.985-17.7L-158.985-17.7L-158.985-18L-156.795-18ZM-142.395-18L-142.395-18L-139.185-18Q-137.925-18 -136.755-17.75Q-135.585-17.49 -134.655-16.93Q-133.725-16.38 -133.175-15.43Q-132.615-14.49 -132.615-13.08L-132.615-13.08Q-132.615-12.03 -133.055-10.99Q-133.485-9.96 -134.405-9.21Q-135.315-8.46 -136.785-8.22L-136.785-8.22Q-135.915-7.95 -135.125-7.17Q-134.325-6.39 -133.905-5.7L-133.905-5.7Q-133.755-5.46 -133.455-4.93Q-133.155-4.41 -132.695-3.73Q-132.225-3.06 -131.715-2.34L-131.715-2.34Q-131.115-1.53 -130.665-1.09Q-130.215-0.66 -129.735-0.48Q-129.255-0.3 -128.625-0.3L-128.625-0.3L-128.625 0L-131.145 0Q-132.765 0 -133.895-0.24Q-135.015-0.48 -135.825-1.13Q-136.635-1.77 -137.355-2.88L-137.355-2.88Q-137.625-3.27 -137.925-3.82Q-138.225-4.38 -138.525-4.95Q-138.825-5.52 -139.055-6.06Q-139.275-6.6 -139.365-6.96L-139.365-6.96Q-139.755-7.92 -140.245-8.36Q-140.745-8.79 -141.165-8.79L-141.165-8.79L-141.165-9.06Q-141.165-9.06 -140.955-9.06Q-140.745-9.06 -140.415-9.06L-140.415-9.06Q-139.785-9.06 -139.165-9.29Q-138.555-9.51 -138.045-10.15Q-137.535-10.8 -137.295-12.06L-137.295-12.06Q-137.235-12.24 -137.195-12.57Q-137.145-12.9 -137.175-13.32L-137.175-13.32Q-137.235-14.43 -137.585-15.09Q-137.925-15.75 -138.435-16.11Q-138.945-16.47 -139.475-16.61Q-139.995-16.74 -140.385-16.74L-140.385-16.74Q-140.955-16.77 -141.415-16.75Q-141.885-16.74 -142.125-16.77L-142.125-16.77Q-142.155-16.77 -142.215-17.09Q-142.275-17.4 -142.335-17.7Q-142.395-18 -142.395-18ZM-146.445-18L-142.095-18L-142.095 0L-146.445 0L-146.445-18ZM-146.415-1.89L-146.355-1.89L-146.235 0L-148.395 0L-148.395-0.3Q-148.365-0.3 -148.225-0.3Q-148.095-0.3 -148.035-0.3L-148.035-0.3Q-147.375-0.3 -146.915-0.77Q-146.445-1.23 -146.415-1.89L-146.415-1.89ZM-146.235-18L-146.355-16.14L-146.415-16.14Q-146.445-16.83 -146.915-17.27Q-147.375-17.7 -148.005-17.7L-148.005-17.7Q-148.095-17.7 -148.225-17.7Q-148.365-17.7 -148.395-17.7L-148.395-17.7L-148.395-18L-146.235-18ZM-142.305 0L-142.155-1.89L-142.095-1.89Q-142.095-1.14 -141.575-0.72Q-141.045-0.3 -140.475-0.3L-140.475-0.3Q-140.475-0.3 -140.335-0.3Q-140.205-0.3 -140.145-0.3L-140.145-0.3L-140.145 0L-142.305 0ZM-123.675-17.91L-119.325-17.91L-119.325 0L-123.675 0L-123.675-17.91ZM-130.185-18.03L-112.815-18.03L-112.815-16.83L-130.185-16.83L-130.185-18.03ZM-115.845-16.92L-112.815-16.92L-112.815-13.74L-113.115-13.74L-113.115-14.01Q-113.085-15.3 -113.825-16.05Q-114.555-16.8 -115.845-16.83L-115.845-16.83L-115.845-16.92ZM-112.815-18.48L-112.815-18.48L-112.815-17.73L-115.965-18.03Q-115.395-18.03 -114.735-18.11Q-114.075-18.18 -113.535-18.29Q-112.995-18.39 -112.815-18.48ZM-123.675-1.89L-123.615-1.89L-123.615 0L-125.625 0L-125.625-0.3Q-125.625-0.3 -125.465-0.3Q-125.295-0.3 -125.295-0.3L-125.295-0.3Q-124.635-0.3 -124.175-0.77Q-123.705-1.23 -123.675-1.89L-123.675-1.89ZM-119.415 0L-119.415-1.89L-119.325-1.89Q-119.325-1.23 -118.845-0.77Q-118.365-0.3 -117.675-0.3L-117.675-0.3Q-117.675-0.3 -117.515-0.3Q-117.345-0.3 -117.345-0.3L-117.345-0.3L-117.345 0L-119.415 0ZM-130.185-16.92L-127.125-16.92L-127.125-16.83Q-128.445-16.8 -129.155-16.05Q-129.855-15.3 -129.855-14.01L-129.855-14.01L-129.855-13.74L-130.185-13.74L-130.185-16.92ZM-130.185-17.73L-130.185-18.48Q-129.915-18.42 -129.395-18.3Q-128.865-18.18 -128.215-18.11Q-127.575-18.03 -127.035-18.03L-127.035-18.03L-130.185-17.73ZM-109.725-18L-105.405-18L-105.405-6.69Q-105.405-3.93 -104.125-2.37Q-102.855-0.81 -100.575-0.81L-100.575-0.81Q-98.205-0.81 -96.905-2.28Q-95.595-3.75 -95.565-6.36L-95.565-6.36L-95.565-18L-93.585-18L-93.585-6.54Q-93.585-3.33 -95.545-1.47Q-97.515 0.39 -101.115 0.39L-101.115 0.39Q-105.435 0.39 -107.585-1.45Q-109.725-3.3 -109.725-6.51L-109.725-6.51L-109.725-18ZM-111.525-18L-109.665-18L-109.665-16.44L-109.725-16.44Q-109.755-17.01 -110.145-17.37Q-110.535-17.73 -111.105-17.73L-111.105-17.73Q-111.105-17.73 -111.315-17.73Q-111.525-17.73 -111.525-17.73L-111.525-17.73L-111.525-18ZM-105.465-18L-103.635-18L-103.635-17.73Q-103.635-17.73 -103.845-17.73Q-104.055-17.73 -104.055-17.73L-104.055-17.73Q-104.625-17.73 -105.015-17.37Q-105.405-17.01 -105.405-16.44L-105.405-16.44L-105.465-16.44L-105.465-18ZM-97.335-18L-95.505-18L-95.505-16.44L-95.565-16.44Q-95.595-17.01 -95.985-17.37Q-96.375-17.73 -96.915-17.73L-96.915-17.73Q-96.915-17.73 -97.125-17.73Q-97.335-17.73 -97.335-17.73L-97.335-17.73L-97.335-18ZM-93.645-18L-91.815-18L-91.815-17.73Q-91.815-17.73 -92.015-17.73Q-92.205-17.73 -92.205-17.73L-92.205-17.73Q-92.775-17.73 -93.185-17.37Q-93.585-17.01 -93.585-16.44L-93.585-16.44L-93.645-16.44L-93.645-18ZM-84.165-13.32L-82.395-18.81L-73.515-0.15L-78.585-0.15L-84.165-13.32ZM-90.195-1.98L-88.035-1.98Q-88.365-1.17 -87.945-0.73Q-87.525-0.3 -87.015-0.3L-87.015-0.3L-86.775-0.3L-86.775 0L-92.775 0L-92.775-0.3Q-92.775-0.3-92.655-0.3Q-92.535-0.3-92.535-0.3L-92.535-0.3Q-91.935-0.3 -91.275-0.67Q-90.615-1.05 -90.195-1.98L-90.195-1.98ZM-82.635-18.81L-82.395-18.81L-82.335-15.21L-88.845-0.09L-91.065-0.09L-84.045-15.18Q-83.985-15.36 -83.775-15.82Q-83.565-16.29 -83.325-16.88Q-83.085-17.46 -82.875-17.98Q-82.665-18.51 -82.635-18.81L-82.635-18.81ZM-87.435-5.88L-79.785-5.88L-79.785-4.71L-87.435-4.71L-87.435-5.88ZM-79.335-1.98L-79.335-1.98L-74.385-1.98Q-73.935-1.05 -73.275-0.67Q-72.615-0.3 -72.015-0.3L-72.015-0.3Q-72.015-0.3 -71.895-0.3Q-71.775-0.3 -71.775-0.3L-71.775-0.3L-71.775 0L-80.595 0L-80.595-0.3L-80.355-0.3Q-79.845-0.3 -79.425-0.73Q-79.005-1.17 -79.335-1.98ZM-69.615-18L-65.295-18L-65.295 0L-69.615 0L-69.615-18ZM-65.355-1.2L-58.305-1.2L-57.585 0L-65.355 0L-65.355-1.2ZM-56.625-5.52L-56.325-5.52L-57.495 0L-62.685 0L-61.755-1.2Q-60.465-1.2 -59.465-1.72Q-58.455-2.25 -57.735-3.23Q-57.015-4.2 -56.625-5.52L-56.625-5.52ZM-69.615-1.89L-69.525-1.89L-69.405 0L-71.625 0L-71.625-0.3Q-71.625-0.3 -71.445-0.3Q-71.265-0.3 -71.235-0.3L-71.235-0.3Q-70.575-0.3 -70.095-0.77Q-69.615-1.23 -69.615-1.89L-69.615-1.89ZM-65.295-16.11L-65.355-16.11L-65.355-18L-63.285-18L-63.285-17.7Q-63.315-17.7 -63.485-17.7Q-63.645-17.7 -63.645-17.7L-63.645-17.7Q-64.305-17.7 -64.785-17.25Q-65.265-16.8 -65.295-16.11L-65.295-16.11ZM-69.525-18L-69.525-16.11L-69.615-16.11Q-69.615-16.8 -70.115-17.25Q-70.605-17.7 -71.265-17.7L-71.265-17.7Q-71.295-17.7 -71.455-17.7Q-71.625-17.7 -71.625-17.7L-71.625-17.7L-71.625-18L-69.525-18ZM-39.885-15.81L-38.055-21.6L-28.275-0.18L-33.645-0.18L-39.885-15.81ZM-46.605-2.19L-44.505-2.19Q-44.745-1.59 -44.595-1.17Q-44.445-0.75 -44.085-0.53Q-43.725-0.3 -43.365-0.3L-43.365-0.3L-43.095-0.3L-43.095 0L-49.515 0L-49.515-0.3Q-49.515-0.3-49.375-0.3Q-49.245-0.3-49.245-0.3L-49.245-0.3Q-48.555-0.3 -47.825-0.73Q-47.085-1.17 -46.605-2.19L-46.605-2.19ZM-38.325-21.6L-38.055-21.6L-37.935-17.94L-45.375-0.09L-47.565-0.09L-39.795-17.67Q-39.705-17.85 -39.475-18.34Q-39.255-18.84 -39.005-19.47Q-38.745-20.1 -38.535-20.68Q-38.325-21.27 -38.325-21.6L-38.325-21.6ZM-43.725-7.14L-34.905-7.14L-34.905-5.88L-43.725-5.88L-43.725-7.14ZM-34.455-2.19L-34.455-2.19L-29.205-2.19Q-28.695-1.17 -27.975-0.73Q-27.255-0.3 -26.565-0.3L-26.565-0.3Q-26.565-0.3 -26.445-0.3Q-26.325-0.3 -26.325-0.3L-26.325-0.3L-26.325 0L-35.865 0L-35.865-0.3L-35.595-0.3Q-34.995-0.3 -34.545-0.79Q-34.095-1.29 -34.455-2.19ZM-20.025-18.39L-20.025-18.39Q-19.425-18.39 -18.575-18.33Q-17.715-18.27 -16.875-18.2Q-16.035-18.12 -15.385-18.02Q-14.745-17.91 -14.505-17.82L-14.505-17.82L-14.895-14.16L-15.165-14.16Q-15.165-15.54 -16.125-16.35Q-17.085-17.16 -18.885-17.16L-18.885-17.16Q-20.325-17.16 -21.205-16.53Q-22.095-15.9 -22.155-14.85L-22.155-14.85Q-22.215-14.31 -21.955-13.88Q-21.705-13.44 -21.245-13.11Q-20.775-12.78 -20.205-12.45L-20.205-12.45L-15.495-9.54Q-14.295-8.94 -13.605-7.8Q-12.915-6.66 -13.005-5.04L-13.005-5.04Q-13.095-3.36 -13.985-2.13Q-14.865-0.9 -16.415-0.26Q-17.955 0.39 -20.055 0.39L-20.055 0.39Q-21.345 0.39 -22.455 0.18Q-23.565-0.03 -24.365-0.39Q-25.155-0.75 -25.575-1.2L-25.575-1.2Q-25.815-1.8 -25.785-2.65Q-25.755-3.51 -25.515-4.37Q-25.275-5.22 -24.915-5.79L-24.915-5.79L-24.675-5.79Q-24.765-4.44 -24.195-3.3Q-23.625-2.16 -22.475-1.48Q-21.315-0.81 -19.725-0.81L-19.725-0.81Q-17.985-0.81 -17.115-1.62Q-16.245-2.43 -16.245-3.54L-16.245-3.54Q-16.245-4.32 -16.775-4.96Q-17.295-5.61 -18.495-6.24L-18.495-6.24L-22.755-8.94Q-24.255-9.72 -24.935-11.01Q-25.605-12.3 -25.425-13.83L-25.425-13.83Q-25.275-15.27 -24.575-16.29Q-23.865-17.31 -22.695-17.85Q-21.525-18.39 -20.025-18.39ZM-17.745-18.12L-14.505-18.12L-14.535-17.58L-17.745-17.58L-17.745-18.12ZM-4.575-18.39L-4.575-18.39Q-3.975-18.39 -3.125-18.33Q-2.265-18.27 -1.425-18.2Q-0.585-18.12  0.065-18.02Q 0.705-17.91  0.945-17.82L 0.945-17.82L 0.555-14.16L 0.285-14.16Q 0.285-15.54 -0.675-16.35Q-1.635-17.16 -3.435-17.16L-3.435-17.16Q-4.875-17.16 -5.755-16.53Q-6.645-15.9 -6.705-14.85L-6.705-14.85Q-6.765-14.31 -6.505-13.88Q-6.255-13.44 -5.795-13.11Q-5.325-12.78 -4.755-12.45L-4.755-12.45L-0.045-9.54Q 1.155-8.94  1.845-7.8Q 2.535-6.66  2.445-5.04L 2.445-5.04Q 2.355-3.36  1.465-2.13Q 0.585-0.9 -0.965-0.26Q-2.505 0.39 -4.605 0.39L-4.605 0.39Q-5.895 0.39 -7.005 0.18Q-8.115-0.03 -8.915-0.39Q-9.705-0.75 -10.125-1.2L-10.125-1.2Q-10.365-1.8 -10.335-2.65Q-10.305-3.51 -10.065-4.37Q-9.825-5.22 -9.465-5.79L-9.465-5.79L-9.225-5.79Q-9.315-4.44 -8.745-3.3Q-8.175-2.16 -7.025-1.48Q-5.865-0.81 -4.275-0.81L-4.275-0.81Q-2.535-0.81 -1.665-1.62Q-0.795-2.43 -0.795-3.54L-0.795-3.54Q-0.795-4.32 -1.325-4.96Q-1.845-5.61 -3.045-6.24L-3.045-6.24L-7.305-8.94Q-8.805-9.72 -9.485-11.01Q-10.155-12.3 -9.975-13.83L-9.975-13.83Q-9.825-15.27 -9.125-16.29Q-8.415-17.31 -7.245-17.85Q-6.075-18.39 -4.575-18.39ZM-2.295-18.12L 0.945-18.12L 0.915-17.58L-2.295-17.58L-2.295-18.12ZM 6.675-18L 10.995-18L 10.995 0L 6.675 0L 6.675-18ZM 6.675-1.89L 6.765-1.89L 6.765 0L 4.575 0L 4.575-0.3Q 4.575-0.3  4.755-0.3Q 4.935-0.3  4.965-0.3L 4.965-0.3Q 5.655-0.3  6.165-0.77Q 6.675-1.23  6.675-1.89L 6.675-1.89ZM 10.935 0L 10.935-1.89L 10.995-1.89Q 11.025-1.23  11.515-0.77Q 12.015-0.3  12.735-0.3L 12.735-0.3Q 12.735-0.3  12.895-0.3Q 13.065-0.3  13.095-0.3L 13.095-0.3L 13.095 0L 10.935 0ZM 10.995-16.11L 10.935-16.11L 10.935-18L 13.095-18L 13.065-17.7Q 13.065-17.7  12.915-17.7Q 12.765-17.7  12.735-17.7L 12.735-17.7Q 12.015-17.7  11.515-17.25Q 11.025-16.8  10.995-16.11L 10.995-16.11ZM 6.765-18L 6.765-16.11L 6.675-16.11Q 6.675-16.8  6.165-17.25Q 5.655-17.7  4.935-17.7L 4.935-17.7Q 4.935-17.7  4.755-17.7Q 4.575-17.7  4.575-17.7L 4.575-17.7L 4.575-18L 6.765-18ZM 21.255-18.39L 21.255-18.39Q 21.855-18.39  22.705-18.33Q 23.565-18.27  24.405-18.2Q 25.245-18.12  25.895-18.02Q 26.535-17.91  26.775-17.82L 26.775-17.82L 26.385-14.16L 26.115-14.16Q 26.115-15.54  25.155-16.35Q 24.195-17.16  22.395-17.16L 22.395-17.16Q 20.955-17.16  20.075-16.53Q 19.185-15.9  19.125-14.85L 19.125-14.85Q 19.065-14.31  19.325-13.88Q 19.575-13.44  20.035-13.11Q 20.505-12.78  21.075-12.45L 21.075-12.45L 25.785-9.54Q 26.985-8.94  27.675-7.8Q 28.365-6.66  28.275-5.04L 28.275-5.04Q 28.185-3.36  27.295-2.13Q 26.415-0.9  24.865-0.26Q 23.325 0.39  21.225 0.39L 21.225 0.39Q 19.935 0.39  18.825 0.18Q 17.715-0.03  16.915-0.39Q 16.125-0.75  15.705-1.2L 15.705-1.2Q 15.465-1.8  15.495-2.65Q 15.525-3.51  15.765-4.37Q 16.005-5.22  16.365-5.79L 16.365-5.79L 16.605-5.79Q 16.515-4.44  17.085-3.3Q 17.655-2.16  18.805-1.48Q 19.965-0.81  21.555-0.81L 21.555-0.81Q 23.295-0.81  24.165-1.62Q 25.035-2.43  25.035-3.54L 25.035-3.54Q 25.035-4.32  24.505-4.96Q 23.985-5.61  22.785-6.24L 22.785-6.24L 18.525-8.94Q 17.025-9.72  16.345-11.01Q 15.675-12.3  15.855-13.83L 15.855-13.83Q 16.005-15.27  16.705-16.29Q 17.415-17.31  18.585-17.85Q 19.755-18.39  21.255-18.39ZM 23.535-18.12L 26.775-18.12L 26.745-17.58L 23.535-17.58L 23.535-18.12ZM 36.015-17.91L 40.365-17.91L 40.365 0L 36.015 0L 36.015-17.91ZM 29.505-18.03L 46.875-18.03L 46.875-16.83L 29.505-16.83L 29.505-18.03ZM 43.845-16.92L 46.875-16.92L 46.875-13.74L 46.575-13.74L 46.575-14.01Q 46.605-15.3  45.865-16.05Q 45.135-16.8  43.845-16.83L 43.845-16.83L 43.845-16.92ZM 46.875-18.48L 46.875-18.48L 46.875-17.73L 43.725-18.03Q 44.295-18.03  44.955-18.11Q 45.615-18.18  46.155-18.29Q 46.695-18.39  46.875-18.48ZM 36.015-1.89L 36.075-1.89L 36.075 0L 34.065 0L 34.065-0.3Q 34.065-0.3  34.225-0.3Q 34.395-0.3  34.395-0.3L 34.395-0.3Q 35.055-0.3  35.515-0.77Q 35.985-1.23  36.015-1.89L 36.015-1.89ZM 40.275 0L 40.275-1.89L 40.365-1.89Q 40.365-1.23  40.845-0.77Q 41.325-0.3  42.015-0.3L 42.015-0.3Q 42.015-0.3  42.175-0.3Q 42.345-0.3  42.345-0.3L 42.345-0.3L 42.345 0L 40.275 0ZM 29.505-16.92L 32.565-16.92L 32.565-16.83Q 31.245-16.8  30.535-16.05Q 29.835-15.3  29.835-14.01L 29.835-14.01L 29.835-13.74L 29.505-13.74L 29.505-16.92ZM 29.505-17.73L 29.505-18.48Q 29.775-18.42  30.295-18.3Q 30.825-18.18  31.475-18.11Q 32.115-18.03  32.655-18.03L 32.655-18.03L 29.505-17.73ZM 53.145-13.32L 54.915-18.81L 63.795-0.15L 58.725-0.15L 53.145-13.32ZM 47.115-1.98L 49.275-1.98Q 48.945-1.17  49.365-0.73Q 49.785-0.3  50.295-0.3L 50.295-0.3L 50.535-0.3L 50.535 0L 44.535 0L 44.535-0.3Q 44.535-0.3 44.655-0.3Q 44.775-0.3 44.775-0.3L 44.775-0.3Q 45.375-0.3  46.035-0.67Q 46.695-1.05  47.115-1.98L 47.115-1.98ZM 54.675-18.81L 54.915-18.81L 54.975-15.21L 48.465-0.09L 46.245-0.09L 53.265-15.18Q 53.325-15.36  53.535-15.82Q 53.745-16.29  53.985-16.88Q 54.225-17.46  54.435-17.98Q 54.645-18.51  54.675-18.81L 54.675-18.81ZM 49.875-5.88L 57.525-5.88L 57.525-4.71L 49.875-4.71L 49.875-5.88ZM 57.975-1.98L 57.975-1.98L 62.925-1.98Q 63.375-1.05  64.035-0.67Q 64.695-0.3  65.295-0.3L 65.295-0.3Q 65.295-0.3  65.415-0.3Q 65.535-0.3  65.535-0.3L 65.535-0.3L 65.535 0L 56.715 0L 56.715-0.3L 56.955-0.3Q 57.465-0.3  57.885-0.73Q 58.305-1.17  57.975-1.98ZM 67.725-15.09L 67.395-18.42L 85.005-2.94L 85.305 0.39L 67.725-15.09ZM 67.425-1.83L 67.515-1.83L 67.515 0L 65.295 0L 65.295-0.3Q 65.295-0.3  65.535-0.3Q 65.775-0.3  65.775-0.3L 65.775-0.3Q 66.465-0.3  66.945-0.73Q 67.425-1.17  67.425-1.83L 67.425-1.83ZM 71.475-1.83L 71.535-1.83Q 71.565-1.17  72.045-0.73Q 72.525-0.3  73.185-0.3L 73.185-0.3Q 73.185-0.3  73.425-0.3Q 73.665-0.3  73.665-0.3L 73.665-0.3L 73.665 0L 71.475 0L 71.475-1.83ZM 67.125-18.42L 67.395-18.42L 71.535-13.92L 71.535 0L 67.425 0L 67.425-15Q 67.425-16.53  67.275-17.47Q 67.125-18.42  67.125-18.42L 67.125-18.42ZM 81.165-18L 85.275-18L 85.275-3.12Q 85.275-2.07  85.345-1.27Q 85.425-0.48  85.505-0.04Q 85.575 0.39  85.575 0.39L 85.575 0.39L 85.305 0.39L 81.165-4.38L 81.165-18ZM 85.275-16.17L 85.185-16.17L 85.185-18L 87.435-18L 87.435-17.7Q 87.435-17.7  87.185-17.7Q 86.925-17.7  86.925-17.7L 86.925-17.7Q 86.265-17.7  85.775-17.27Q 85.275-16.83  85.275-16.17L 85.275-16.17ZM 81.225-16.17L 81.165-16.17Q 81.135-16.83  80.665-17.27Q 80.205-17.7  79.515-17.7L 79.515-17.7Q 79.515-17.7  79.255-17.7Q 79.005-17.7  79.005-17.7L 79.005-17.7L 79.005-18L 81.225-18L 81.225-16.17ZM 94.845-17.91L 99.195-17.91L 99.195 0L 94.845 0L 94.845-17.91ZM 88.335-18.03L 105.705-18.03L 105.705-16.83L 88.335-16.83L 88.335-18.03ZM 102.675-16.92L 105.705-16.92L 105.705-13.74L 105.405-13.74L 105.405-14.01Q 105.435-15.3  104.695-16.05Q 103.965-16.8  102.675-16.83L 102.675-16.83L 102.675-16.92ZM 105.705-18.48L 105.705-18.48L 105.705-17.73L 102.555-18.03Q 103.125-18.03  103.785-18.11Q 104.445-18.18  104.985-18.29Q 105.525-18.39  105.705-18.48ZM 94.845-1.89L 94.905-1.89L 94.905 0L 92.895 0L 92.895-0.3Q 92.895-0.3  93.055-0.3Q 93.225-0.3  93.225-0.3L 93.225-0.3Q 93.885-0.3  94.345-0.77Q 94.815-1.23  94.845-1.89L 94.845-1.89ZM 99.105 0L 99.105-1.89L 99.195-1.89Q 99.195-1.23  99.675-0.77Q 100.155-0.3  100.845-0.3L 100.845-0.3Q 100.845-0.3  101.005-0.3Q 101.175-0.3  101.175-0.3L 101.175-0.3L 101.175 0L 99.105 0ZM 88.335-16.92L 91.395-16.92L 91.395-16.83Q 90.075-16.8  89.365-16.05Q 88.665-15.3  88.665-14.01L 88.665-14.01L 88.665-13.74L 88.335-13.74L 88.335-16.92ZM 88.335-17.73L 88.335-18.48Q 88.605-18.42  89.125-18.3Q 89.655-18.18  90.305-18.11Q 90.945-18.03  91.485-18.03L 91.485-18.03L 88.335-17.73ZM 113.145-18.39L 113.145-18.39Q 113.745-18.39  114.595-18.33Q 115.455-18.27  116.295-18.2Q 117.135-18.12  117.785-18.02Q 118.425-17.91  118.665-17.82L 118.665-17.82L 118.275-14.16L 118.005-14.16Q 118.005-15.54  117.045-16.35Q 116.085-17.16  114.285-17.16L 114.285-17.16Q 112.845-17.16  111.965-16.53Q 111.075-15.9  111.015-14.85L 111.015-14.85Q 110.955-14.31  111.215-13.88Q 111.465-13.44  111.925-13.11Q 112.395-12.78  112.965-12.45L 112.965-12.45L 117.675-9.54Q 118.875-8.94  119.565-7.8Q 120.255-6.66  120.165-5.04L 120.165-5.04Q 120.075-3.36  119.185-2.13Q 118.305-0.9  116.755-0.26Q 115.215 0.39  113.115 0.39L 113.115 0.39Q 111.825 0.39  110.715 0.18Q 109.605-0.03  108.805-0.39Q 108.015-0.75  107.595-1.2L 107.595-1.2Q 107.355-1.8  107.385-2.65Q 107.415-3.51  107.655-4.37Q 107.895-5.22  108.255-5.79L 108.255-5.79L 108.495-5.79Q 108.405-4.44  108.975-3.3Q 109.545-2.16  110.695-1.48Q 111.855-0.81  113.445-0.81L 113.445-0.81Q 115.185-0.81  116.055-1.62Q 116.925-2.43  116.925-3.54L 116.925-3.54Q 116.925-4.32  116.395-4.96Q 115.875-5.61  114.675-6.24L 114.675-6.24L 110.415-8.94Q 108.915-9.72  108.235-11.01Q 107.565-12.3  107.745-13.83L 107.745-13.83Q 107.895-15.27  108.595-16.29Q 109.305-17.31  110.475-17.85Q 111.645-18.39  113.145-18.39ZM 115.425-18.12L 118.665-18.12L 118.635-17.58L 115.425-17.58L 115.425-18.12ZM 150.375-8.76L 150.615-8.76L 150.885-3.6Q 150.225-2.49  149.115-1.59Q 148.005-0.69  146.355-0.14Q 144.705 0.42  142.455 0.42L 142.455 0.42Q 138.795 0.39  136.045-0.91Q 133.305-2.22  131.805-4.65Q 130.305-7.08  130.305-10.53L 130.305-10.53Q 130.305-13.89  131.775-16.34Q 133.245-18.78  135.995-20.1Q 138.735-21.42  142.545-21.42L 142.545-21.42Q 144.945-21.42  146.845-20.94Q 148.755-20.46  150.015-19.77L 150.015-19.77L 150.075-14.64L 149.805-14.64Q 148.995-17.61  147.165-18.88Q 145.335-20.16  142.875-20.16L 142.875-20.16Q 140.475-20.16  138.765-18.99Q 137.055-17.82  136.125-15.69Q 135.195-13.56  135.195-10.59L 135.195-10.59Q 135.195-7.62  136.085-5.46Q 136.965-3.3  138.595-2.1Q 140.235-0.9  142.455-0.84L 142.455-0.84Q 144.765-0.84  146.355-1.59Q 147.945-2.34  148.915-4.08Q 149.895-5.82  150.375-8.76L 150.375-8.76ZM 163.995-18.39L 163.995-18.39Q 166.395-18.39  168.345-17.75Q 170.295-17.1  171.705-15.87Q 173.115-14.64  173.875-12.9Q 174.645-11.16  174.645-8.97L 174.645-8.97Q 174.645-6.81  173.875-5.08Q 173.115-3.36  171.705-2.13Q 170.295-0.9  168.345-0.26Q 166.395 0.39  163.995 0.39L 163.995 0.39Q 161.625 0.39  159.675-0.26Q 157.725-0.9  156.315-2.13Q 154.905-3.36  154.155-5.08Q 153.405-6.81  153.405-8.97L 153.405-8.97Q 153.405-11.16  154.155-12.9Q 154.905-14.64  156.315-15.87Q 157.725-17.1  159.675-17.75Q 161.625-18.39  163.995-18.39ZM 163.995-0.78L 163.995-0.78Q 165.825-0.78  167.185-1.78Q 168.555-2.79  169.285-4.62Q 170.025-6.45  170.025-8.97L 170.025-8.97Q 170.025-11.52  169.285-13.37Q 168.555-15.21  167.185-16.21Q 165.825-17.22  163.995-17.22L 163.995-17.22Q 162.195-17.22  160.845-16.21Q 159.495-15.21  158.745-13.37Q 157.995-11.52  157.995-8.97L 157.995-8.97Q 157.995-6.45  158.745-4.62Q 159.495-2.79  160.845-1.78Q 162.195-0.78  163.995-0.78ZM 178.155 0.3L 178.155 0.3Q 177.255 0.3  176.625-0.33Q 175.995-0.96  175.995-1.86L 175.995-1.86Q 175.995-2.79  176.625-3.42Q 177.255-4.05  178.155-4.05L 178.155-4.05Q 179.085-4.05  179.715-3.42Q 180.345-2.79  180.345-1.86L 180.345-1.86Q 180.345-0.96  179.715-0.33Q 179.085 0.3  178.155 0.3Z" />
  <path text="Service Beyond Borders" fill="#000000" space="preserve" text-anchor="middle" offset="0.5" font-scale="contain" font-size="23" font-family="Cinzel" transform="matrix(1.025501012802124, 0, 0, 0.9701338410377502, 347.0232238769531, 296.0957946777344)" font-style="normal" font-weight="400" data-fl-textpath="" d="M-144.765-0.94L-144.765-0.94Q-144.835-1.26 -144.835-2.19Q-144.835-3.1 -144.485-4.14L-144.485-4.14L-144.275-4.14Q-144.305-3.89 -144.305-3.63L-144.305-3.63Q-144.305-2.23 -143.455-1.3Q-142.605-0.37 -141.195-0.37L-141.195-0.37Q-139.745-0.37 -138.815-1.24Q-137.885-2.12 -137.885-3.44Q-137.885-4.76 -138.785-5.59L-138.785-5.59L-143.195-9.68Q-144.445-10.83 -144.445-12.47Q-144.445-14.1 -143.345-15.26Q-142.255-16.42 -140.395-16.42L-140.395-16.42Q-139.515-16.42 -138.415-16.19L-138.415-16.19L-137.515-16.19L-137.515-13.36L-137.725-13.36Q-137.725-14.44 -138.475-15.09Q-139.215-15.73 -140.395-15.73Q-141.565-15.73 -142.355-14.95Q-143.155-14.17 -143.155-12.99Q-143.155-11.82 -142.235-10.97L-142.235-10.97L-137.705-6.79Q-136.555-5.73 -136.555-3.89Q-136.555-2.05 -137.725-0.86Q-138.895 0.32 -140.855 0.32L-140.855 0.32Q-141.865 0.32 -143.005 0.01Q-144.145-0.3 -144.765-0.94ZM-133.98-0.23L-133.65-0.23Q-133.1-0.23 -132.72-0.59Q-132.34-0.94 -132.32-1.45L-132.32-1.45L-132.32-12.37Q-132.32-12.88 -132.71-13.22Q-133.1-13.57 -133.65-13.57L-133.65-13.57L-133.98-13.57L-133.98-13.8L-127.26-13.8Q-126.32-13.8 -125.6-13.94Q-124.89-14.08 -124.68-14.17L-124.68-14.17L-124.68-11.55L-124.94-11.57L-124.94-11.91Q-124.94-12.4 -125.26-12.74Q-125.58-13.09 -126.09-13.09L-126.09-13.09L-130.87-13.09L-130.87-7.25L-126.94-7.25Q-126.48-7.25 -126.24-7.52Q-125.99-7.8 -125.99-8.21L-125.99-8.21L-125.99-8.51L-125.74-8.51L-125.74-5.29L-125.99-5.29L-125.99-5.59Q-125.99-6.23 -126.48-6.46L-126.48-6.46Q-126.66-6.53 -126.87-6.55L-126.87-6.55L-130.87-6.55L-130.87-0.71L-127.26-0.71Q-126.2-0.71 -125.48-1.08Q-124.75-1.45 -124.37-1.96Q-123.99-2.46 -123.6-3.29L-123.6-3.29L-123.37-3.29L-124.64 0L-133.98 0L-133.98-0.23ZM-117.342-13.09L-117.342-13.09L-118.562-13.09L-118.562-1.47Q-118.542-0.76 -117.922-0.39L-117.922-0.39Q-117.622-0.23 -117.252-0.23L-117.252-0.23L-116.952-0.23L-116.932 0L-121.652 0L-121.652-0.23L-121.322-0.23Q-120.792-0.23 -120.412-0.59Q-120.032-0.94 -120.032-1.45L-120.032-1.45L-120.032-12.37Q-120.032-12.88 -120.412-13.22Q-120.792-13.57 -121.322-13.57L-121.322-13.57L-121.652-13.57L-121.652-13.8L-115.872-13.8Q-113.712-13.8 -112.462-12.81Q-111.202-11.82 -111.202-10.21Q-111.202-8.6 -112.212-7.52Q-113.232-6.44 -114.792-6.28L-114.792-6.28Q-114.052-5.96 -113.022-4.49L-113.022-4.49Q-113.042-4.49 -112.232-3.47Q-111.412-2.46 -110.922-1.9Q-110.422-1.33 -110.102-1.03L-110.102-1.03Q-109.252-0.23 -108.142-0.23L-108.142-0.23L-108.142 0L-108.862 0Q-110.672 0 -111.712-0.71L-111.712-0.71Q-112.492-1.24 -113.132-2.02L-113.132-2.02Q-113.272-2.21 -114.302-3.65Q-115.322-5.08 -115.392-5.17L-115.392-5.17Q-116.632-6.72 -117.712-6.72L-117.712-6.72L-117.712-6.95Q-115.022-6.95 -114.472-7.22L-114.472-7.22Q-113.712-7.61 -113.432-8.05L-113.432-8.05Q-112.862-8.97 -112.862-10.07L-112.862-10.07Q-112.862-11.48 -113.692-12.24Q-114.522-12.99 -115.922-13.06L-115.922-13.06Q-116.542-13.09 -117.342-13.09ZM-94.051-13.8L-94.051-13.57L-94.231-13.57Q-94.741-13.57 -95.221-13.24Q-95.701-12.9 -96.051-12.24L-96.051-12.24Q-101.061-1.47 -101.271-0.97L-101.271-0.97Q-101.661 0 -101.681 0.32L-101.681 0.32L-101.891 0.32L-107.571-12.21Q-108.241-13.57 -109.341-13.57L-109.341-13.57L-109.521-13.57L-109.521-13.8L-104.811-13.8L-104.811-13.57L-104.991-13.57Q-105.431-13.57 -105.651-13.26Q-105.871-12.95 -105.871-12.7Q-105.871-12.44 -105.801-12.17L-105.801-12.17L-101.681-2.14L-97.451-12.12Q-97.341-12.42 -97.341-12.68Q-97.341-12.95 -97.561-13.26Q-97.791-13.57 -98.261-13.57L-98.261-13.57L-98.421-13.57L-98.421-13.8L-94.051-13.8ZM-92.902-0.23L-92.572-0.23Q-91.952-0.23 -91.492-0.6Q-91.032-0.97 -91.032-1.47L-91.032-1.47L-91.032-12.33Q-91.032-12.83 -91.492-13.2Q-91.952-13.57 -92.602-13.57L-92.602-13.57L-92.902-13.57L-92.902-13.8L-87.702-13.8L-87.702-13.57L-88.002-13.57Q-88.622-13.57 -89.072-13.22Q-89.512-12.88 -89.562-12.37L-89.562-12.37L-89.562-1.45Q-89.542-0.94 -89.082-0.59Q-88.622-0.23 -88.002-0.23L-88.002-0.23L-87.702-0.23L-87.672 0L-92.902 0L-92.902-0.23ZM-78.039 0.32Q-81.559 0.3 -83.589-1.63Q-85.629-3.56 -85.629-6.91Q-85.629-10.26 -83.589-12.19Q-81.559-14.12 -78.039-14.12L-78.039-14.12Q-76.609-14.12 -75.159-13.75Q-73.719-13.39 -72.659-12.74L-72.659-12.74L-72.149-9.48L-72.359-9.48Q-73.349-13.43 -78.059-13.43L-78.059-13.43Q-80.799-13.43 -82.389-11.68Q-83.969-9.94 -83.969-6.9L-83.969-6.9Q-83.969-4.92 -83.259-3.46Q-82.549-2 -81.189-1.2L-81.189-1.2Q-79.829-0.39 -78.039-0.39Q-76.249-0.39 -74.899-0.93Q-73.559-1.47 -72.669-2.71Q-71.779-3.96 -71.669-5.8L-71.669-5.8L-71.459-5.8L-71.719-2.65Q-72.609-1.26 -74.309-0.47Q-76.019 0.32 -78.039 0.32L-78.039 0.32ZM-69.304-0.23L-68.974-0.23Q-68.424-0.23 -68.044-0.59Q-67.664-0.94 -67.644-1.45L-67.644-1.45L-67.644-12.37Q-67.644-12.88 -68.034-13.22Q-68.424-13.57 -68.974-13.57L-68.974-13.57L-69.304-13.57L-69.304-13.8L-62.584-13.8Q-61.644-13.8 -60.924-13.94Q-60.214-14.08 -60.004-14.17L-60.004-14.17L-60.004-11.55L-60.264-11.57L-60.264-11.91Q-60.264-12.4 -60.584-12.74Q-60.904-13.09 -61.414-13.09L-61.414-13.09L-66.194-13.09L-66.194-7.25L-62.264-7.25Q-61.804-7.25 -61.564-7.52Q-61.314-7.8 -61.314-8.21L-61.314-8.21L-61.314-8.51L-61.064-8.51L-61.064-5.29L-61.314-5.29L-61.314-5.59Q-61.314-6.23 -61.804-6.46L-61.804-6.46Q-61.984-6.53 -62.194-6.55L-62.194-6.55L-66.194-6.55L-66.194-0.71L-62.584-0.71Q-61.524-0.71 -60.804-1.08Q-60.074-1.45 -59.694-1.96Q-59.314-2.46 -58.924-3.29L-58.924-3.29L-58.694-3.29L-59.964 0L-69.304 0L-69.304-0.23ZM-45.266 0L-45.266 0L-50.876 0L-50.856-0.23L-50.576-0.23Q-49.976-0.23 -49.556-0.64Q-49.126-1.06 -49.106-1.66L-49.106-1.66L-49.106-14.44Q-49.106-15.04 -49.546-15.46Q-49.976-15.87 -50.576-15.87L-50.576-15.87L-50.856-15.87L-50.876-16.1L-46.296-16.1Q-43.926-16.1 -42.616-15.05Q-41.306-14.01 -41.306-12.26L-41.306-12.26Q-41.306-10.88 -42.046-9.97Q-42.776-9.06 -43.836-8.76L-43.836-8.76Q-42.026-8.49 -40.966-7.27Q-39.906-6.05 -39.906-4.2Q-39.906-2.35 -41.316-1.17Q-42.736 0 -45.266 0ZM-47.606-15.36L-47.606-0.83L-45.356-0.83Q-45.336-0.83 -45.306-0.83L-45.306-0.83Q-43.566-0.83 -42.596-1.78Q-41.626-2.74 -41.626-4.49L-41.626-4.49Q-41.626-5.47 -41.966-6.22Q-42.296-6.97 -42.806-7.41L-42.806-7.41Q-44.136-8.51 -46.806-8.51L-46.806-8.51Q-46.806-8.51 -46.826-8.51L-46.826-8.51L-46.826-8.72Q-46.806-8.72 -46.606-8.72Q-46.416-8.72 -46.046-8.76Q-45.676-8.81 -45.216-8.92Q-44.756-9.04 -44.386-9.29Q-44.026-9.54 -43.696-9.89L-43.696-9.89Q-43.036-10.65 -43.036-12.16Q-43.036-13.66 -43.896-14.51Q-44.756-15.36 -46.386-15.36L-46.386-15.36L-47.606-15.36ZM-37.748-0.23L-37.418-0.23Q-36.868-0.23 -36.488-0.59Q-36.108-0.94 -36.088-1.45L-36.088-1.45L-36.088-12.37Q-36.088-12.88 -36.478-13.22Q-36.868-13.57 -37.418-13.57L-37.418-13.57L-37.748-13.57L-37.748-13.8L-31.028-13.8Q-30.088-13.8 -29.368-13.94Q-28.658-14.08 -28.448-14.17L-28.448-14.17L-28.448-11.55L-28.708-11.57L-28.708-11.91Q-28.708-12.4 -29.028-12.74Q-29.348-13.09 -29.858-13.09L-29.858-13.09L-34.638-13.09L-34.638-7.25L-30.708-7.25Q-30.248-7.25 -30.008-7.52Q-29.758-7.8 -29.758-8.21L-29.758-8.21L-29.758-8.51L-29.508-8.51L-29.508-5.29L-29.758-5.29L-29.758-5.59Q-29.758-6.23 -30.248-6.46L-30.248-6.46Q-30.428-6.53 -30.638-6.55L-30.638-6.55L-34.638-6.55L-34.638-0.71L-31.028-0.71Q-29.968-0.71 -29.248-1.08Q-28.518-1.45 -28.138-1.96Q-27.758-2.46 -27.368-3.29L-27.368-3.29L-27.138-3.29L-28.408 0L-37.748 0L-37.748-0.23ZM-11.62-13.8L-11.62-13.57L-11.89-13.57Q-12.51-13.57 -13.08-13.24Q-13.64-12.9 -14.01-12.4L-14.01-12.4L-18.42-5.7L-18.42-1.47Q-18.42-0.97 -18.03-0.6Q-17.64-0.23 -17.09-0.23L-17.09-0.23L-16.81-0.23L-16.81 0L-21.53 0L-21.53-0.23L-21.25-0.23Q-20.7-0.23 -20.31-0.6Q-19.92-0.97 -19.92-1.47L-19.92-1.47L-19.92-5.73L-24.17-12.42Q-24.96-13.57 -26.29-13.57L-26.29-13.57L-26.56-13.57L-26.56-13.8L-21.23-13.8L-21.23-13.57L-21.5-13.57Q-21.94-13.57 -22.14-13.29Q-22.33-13.02 -22.33-12.82Q-22.33-12.63 -22.29-12.47L-22.29-12.47L-18.93-6.51L-15.36-12.44Q-15.3-12.63 -15.3-12.82Q-15.3-13.02 -15.49-13.29Q-15.69-13.57 -16.15-13.57L-16.15-13.57L-16.42-13.57L-16.42-13.8L-11.62-13.8ZM-7.525-13.21Q-5.745-14.12 -3.625-14.12Q-1.495-14.12  0.275-13.21Q 2.045-12.3  3.095-10.65Q 4.145-8.99  4.145-6.9Q 4.145-4.81  3.095-3.15Q 2.045-1.49  0.275-0.59Q-1.495 0.32 -3.355 0.32Q-5.225 0.32 -6.645-0.21Q-8.075-0.74 -9.115-1.68Q-10.165-2.62 -10.775-3.98Q-11.385-5.34 -11.385-7.16Q-11.385-8.99 -10.335-10.65Q-9.295-12.3 -7.525-13.21ZM-7.945-2.2Q-6.205-0.37 -3.635-0.37Q-1.055-0.37  0.685-2.2Q 2.435-4.03  2.435-6.9Q 2.435-9.78  0.685-11.6Q-1.055-13.43 -3.635-13.43Q-6.205-13.43 -7.945-11.6Q-9.685-9.78 -9.685-6.9Q-9.685-4.03 -7.945-2.2ZM 22.262-13.57L 21.872-13.57Q 21.362-13.57  21.002-13.24Q 20.632-12.9  20.612-12.42L 20.612-12.42L 20.612-2.62Q 20.612-1.29  20.772-0.09L 20.772-0.09L 20.812 0.32L 20.612 0.32L 8.652-11.02L 8.652-1.43Q 8.652-0.92  9.012-0.57Q 9.382-0.23  9.912-0.23L 9.912-0.23L 10.302-0.23L 10.302 0L 5.952 0L 5.952-0.23L 6.352-0.23Q 6.872-0.23  7.242-0.57Q 7.612-0.92  7.612-1.43L 7.612-1.43L 7.612-11.27Q 7.612-12.67  7.452-13.78L 7.452-13.78L 7.402-14.14L 7.662-14.12L 19.592-2.88L 19.592-12.42Q 19.552-12.9  19.182-13.24Q 18.812-13.57  18.312-13.57L 18.312-13.57L 17.922-13.57L 17.922-13.8L 22.262-13.8L 22.262-13.57ZM 39.399-6.9L 39.399-6.9Q 39.399-3.7  37.409-1.85Q 35.419 0  32.019 0L 32.019 0L 24.329 0L 24.329-0.23L 24.629-0.23Q 25.189-0.23  25.549-0.6Q 25.919-0.97  25.949-1.47L 25.949-1.47L 25.949-12.33Q 25.919-12.88  25.539-13.22Q 25.159-13.57  24.609-13.57L 24.609-13.57L 24.329-13.57L 24.329-13.8L 32.019-13.8Q 34.269-13.8  35.939-12.97Q 37.609-12.14  38.499-10.58Q 39.399-9.02  39.399-6.9ZM 32.019-13.11L 27.439-13.11L 27.439-0.69L 32.019-0.69Q 34.659-0.69  36.199-2.36Q 37.739-4.03  37.739-6.9L 37.739-6.9Q 37.739-9.78  36.199-11.44Q 34.659-13.11  32.019-13.11L 32.019-13.11ZM 53.289 0L 53.289 0L 47.679 0L 47.699-0.23L 47.979-0.23Q 48.579-0.23  48.999-0.64Q 49.429-1.06  49.449-1.66L 49.449-1.66L 49.449-14.44Q 49.449-15.04  49.009-15.46Q 48.579-15.87  47.979-15.87L 47.979-15.87L 47.699-15.87L 47.679-16.1L 52.259-16.1Q 54.629-16.1  55.939-15.05Q 57.249-14.01  57.249-12.26L 57.249-12.26Q 57.249-10.88  56.509-9.97Q 55.779-9.06  54.719-8.76L 54.719-8.76Q 56.529-8.49  57.589-7.27Q 58.649-6.05  58.649-4.2Q 58.649-2.35  57.239-1.17Q 55.819 0  53.289 0ZM 50.949-15.36L 50.949-0.83L 53.199-0.83Q 53.219-0.83  53.249-0.83L 53.249-0.83Q 54.989-0.83  55.959-1.78Q 56.929-2.74  56.929-4.49L 56.929-4.49Q 56.929-5.47  56.589-6.22Q 56.259-6.97  55.749-7.41L 55.749-7.41Q 54.419-8.51  51.749-8.51L 51.749-8.51Q 51.749-8.51  51.729-8.51L 51.729-8.51L 51.729-8.72Q 51.749-8.72  51.949-8.72Q 52.139-8.72  52.509-8.76Q 52.879-8.81  53.339-8.92Q 53.799-9.04  54.169-9.29Q 54.529-9.54  54.859-9.89L 54.859-9.89Q 55.519-10.65  55.519-12.16Q 55.519-13.66  54.659-14.51Q 53.799-15.36  52.169-15.36L 52.169-15.36L 50.949-15.36ZM 64.787-13.21Q 66.567-14.12  68.687-14.12Q 70.817-14.12  72.587-13.21Q 74.357-12.3  75.407-10.65Q 76.457-8.99  76.457-6.9Q 76.457-4.81  75.407-3.15Q 74.357-1.49  72.587-0.59Q 70.817 0.32  68.957 0.32Q 67.087 0.32  65.667-0.21Q 64.237-0.74  63.197-1.68Q 62.147-2.62  61.537-3.98Q 60.927-5.34  60.927-7.16Q 60.927-8.99  61.977-10.65Q 63.017-12.3  64.787-13.21ZM 64.367-2.2Q 66.107-0.37  68.677-0.37Q 71.257-0.37  72.997-2.2Q 74.747-4.03  74.747-6.9Q 74.747-9.78  72.997-11.6Q 71.257-13.43  68.677-13.43Q 66.107-13.43  64.367-11.6Q 62.627-9.78  62.627-6.9Q 62.627-4.03  64.367-2.2ZM 82.804-13.09L 82.804-13.09L 81.584-13.09L 81.584-1.47Q 81.604-0.76  82.224-0.39L 82.224-0.39Q 82.524-0.23  82.894-0.23L 82.894-0.23L 83.194-0.23L 83.214 0L 78.494 0L 78.494-0.23L 78.824-0.23Q 79.354-0.23  79.734-0.59Q 80.114-0.94  80.114-1.45L 80.114-1.45L 80.114-12.37Q 80.114-12.88  79.734-13.22Q 79.354-13.57  78.824-13.57L 78.824-13.57L 78.494-13.57L 78.494-13.8L 84.274-13.8Q 86.434-13.8  87.684-12.81Q 88.944-11.82  88.944-10.21Q 88.944-8.6  87.934-7.52Q 86.914-6.44  85.354-6.28L 85.354-6.28Q 86.094-5.96  87.124-4.49L 87.124-4.49Q 87.104-4.49  87.914-3.47Q 88.734-2.46  89.224-1.9Q 89.724-1.33  90.044-1.03L 90.044-1.03Q 90.894-0.23  92.004-0.23L 92.004-0.23L 92.004 0L 91.284 0Q 89.474 0  88.434-0.71L 88.434-0.71Q 87.654-1.24  87.014-2.02L 87.014-2.02Q 86.874-2.21  85.844-3.65Q 84.824-5.08  84.754-5.17L 84.754-5.17Q 83.514-6.72  82.434-6.72L 82.434-6.72L 82.434-6.95Q 85.124-6.95  85.674-7.22L 85.674-7.22Q 86.434-7.61  86.714-8.05L 86.714-8.05Q 87.284-8.97  87.284-10.07L 87.284-10.07Q 87.284-11.48  86.454-12.24Q 85.624-12.99  84.224-13.06L 84.224-13.06Q 83.604-13.09  82.804-13.09ZM 107.985-6.9L 107.985-6.9Q 107.985-3.7  105.995-1.85Q 104.005 0  100.605 0L 100.605 0L 92.915 0L 92.915-0.23L 93.215-0.23Q 93.775-0.23  94.135-0.6Q 94.505-0.97  94.535-1.47L 94.535-1.47L 94.535-12.33Q 94.505-12.88  94.125-13.22Q 93.745-13.57  93.195-13.57L 93.195-13.57L 92.915-13.57L 92.915-13.8L 100.605-13.8Q 102.855-13.8  104.525-12.97Q 106.195-12.14  107.085-10.58Q 107.985-9.02  107.985-6.9ZM 100.605-13.11L 96.025-13.11L 96.025-0.69L 100.605-0.69Q 103.245-0.69  104.785-2.36Q 106.325-4.03  106.325-6.9L 106.325-6.9Q 106.325-9.78  104.785-11.44Q 103.245-13.11  100.605-13.11L 100.605-13.11ZM 110.05-0.23L 110.38-0.23Q 110.93-0.23  111.31-0.59Q 111.69-0.94  111.71-1.45L 111.71-1.45L 111.71-12.37Q 111.71-12.88  111.32-13.22Q 110.93-13.57  110.38-13.57L 110.38-13.57L 110.05-13.57L 110.05-13.8L 116.77-13.8Q 117.71-13.8  118.43-13.94Q 119.14-14.08  119.35-14.17L 119.35-14.17L 119.35-11.55L 119.09-11.57L 119.09-11.91Q 119.09-12.4  118.77-12.74Q 118.45-13.09  117.94-13.09L 117.94-13.09L 113.16-13.09L 113.16-7.25L 117.09-7.25Q 117.55-7.25  117.79-7.52Q 118.04-7.8  118.04-8.21L 118.04-8.21L 118.04-8.51L 118.29-8.51L 118.29-5.29L 118.04-5.29L 118.04-5.59Q 118.04-6.23  117.55-6.46L 117.55-6.46Q 117.37-6.53  117.16-6.55L 117.16-6.55L 113.16-6.55L 113.16-0.71L 116.77-0.71Q 117.83-0.71  118.55-1.08Q 119.28-1.45  119.66-1.96Q 120.04-2.46  120.43-3.29L 120.43-3.29L 120.66-3.29L 119.39 0L 110.05 0L 110.05-0.23ZM 126.688-13.09L 126.688-13.09L 125.468-13.09L 125.468-1.47Q 125.488-0.76  126.108-0.39L 126.108-0.39Q 126.408-0.23  126.778-0.23L 126.778-0.23L 127.078-0.23L 127.098 0L 122.378 0L 122.378-0.23L 122.708-0.23Q 123.238-0.23  123.618-0.59Q 123.998-0.94  123.998-1.45L 123.998-1.45L 123.998-12.37Q 123.998-12.88  123.618-13.22Q 123.238-13.57  122.708-13.57L 122.708-13.57L 122.378-13.57L 122.378-13.8L 128.158-13.8Q 130.318-13.8  131.568-12.81Q 132.828-11.82  132.828-10.21Q 132.828-8.6  131.818-7.52Q 130.798-6.44  129.238-6.28L 129.238-6.28Q 129.978-5.96  131.008-4.49L 131.008-4.49Q 130.988-4.49  131.798-3.47Q 132.618-2.46  133.108-1.9Q 133.608-1.33  133.928-1.03L 133.928-1.03Q 134.778-0.23  135.888-0.23L 135.888-0.23L 135.888 0L 135.168 0Q 133.358 0  132.318-0.71L 132.318-0.71Q 131.538-1.24  130.898-2.02L 130.898-2.02Q 130.758-2.21  129.728-3.65Q 128.708-5.08  128.638-5.17L 128.638-5.17Q 127.398-6.72  126.318-6.72L 126.318-6.72L 126.318-6.95Q 129.008-6.95  129.558-7.22L 129.558-7.22Q 130.318-7.61  130.598-8.05L 130.598-8.05Q 131.168-8.97  131.168-10.07L 131.168-10.07Q 131.168-11.48  130.338-12.24Q 129.508-12.99  128.108-13.06L 128.108-13.06Q 127.488-13.09  126.688-13.09ZM 136.869-0.76L 136.869-0.76Q 136.799-1.03  136.799-1.89Q 136.799-2.74  137.099-3.61L 137.099-3.61L 137.379-3.61Q 137.359-3.4  137.359-3.2L 137.359-3.2Q 137.359-1.96  138.169-1.16Q 138.989-0.37  140.439-0.37L 140.439-0.37Q 141.959-0.37  142.809-1.07Q 143.659-1.77  143.659-2.89Q 143.659-4  142.829-4.74L 142.829-4.74L 138.229-8.28Q 137.129-9.22  137.129-10.81L 137.129-10.81Q 137.129-11.71  137.619-12.47Q 138.119-13.22  138.999-13.67Q 139.889-14.12  141.079-14.12Q 142.279-14.12  143.199-13.91L 143.199-13.91L 143.959-13.91L 143.999-11.41L 143.749-11.41Q 143.749-12.37  143.079-12.9Q 142.419-13.43  141.169-13.43Q 139.929-13.43  139.129-12.8Q 138.319-12.17  138.319-11.17Q 138.319-10.17  139.219-9.43L 139.219-9.43L 143.869-5.84Q 144.919-4.97  144.919-3.4Q 144.919-1.84  143.739-0.76Q 142.549 0.32  140.849 0.32L 140.849 0.32Q 139.729 0.32  138.599 0.05Q 137.469-0.23  136.869-0.76Z" />
  <g transform="matrix(1.2556709051132202, 0, 0, 1.0110219717025757, -16.084655220753007, -49.58333794683949)" fill="#000000">
    <path d="m221.539 258.336-17.33 49.772h106.787l-18.172-49.772z" transform="matrix(0.1527027040719986, 0, 0, 0.1643500030040741, 20.410808563232422, 233.09434509277344)" fill="#000000" />
    <path d="m340.122 387.881-18.172-49.773h-128.186l-17.33 49.773z" transform="matrix(0.1527027040719986, 0, 0, 0.1643500030040741, 20.410808563232422, 233.09434509277344)" fill="#000000" />
    <path d="m356.8 98.745-51.305-74.342h-98.9l-51.328 74.342z" transform="matrix(0.1527027040719986, 0, 0, 0.1643500030040741, 20.410808563232422, 233.09434509277344)" fill="#000000" />
    <path d="m143.49 391.264 91.404-262.519h-99.775v-.818l-135.119 192.647 47.629 103.099z" transform="matrix(0.1527027040719986, 0, 0, 0.1643500030040741, 20.410808563232422, 233.09434509277344)" fill="#000000" />
    <path d="m377.504 128.745h-100.059l95.874 262.587 91.209 32.173 47.472-102.928z" transform="matrix(0.1527027040719986, 0, 0, 0.1643500030040741, 20.410808563232422, 233.09434509277344)" fill="#000000" />
    <path d="m231.985 228.336h49.885l-25.535-69.937z" transform="matrix(0.1527027040719986, 0, 0, 0.1643500030040741, 20.410808563232422, 233.09434509277344)" fill="#000000" />
    <path d="m325.762 417.881h-139.432l69.716 69.716z" transform="matrix(0.1527027040719986, 0, 0, 0.1643500030040741, 20.410808563232422, 233.09434509277344)" fill="#000000" />
  </g>
</svg>